<?xml version="1.0" encoding="UTF-8"?>
<!-- Created with Inkscape (http://www.inkscape.org/) -->
<svg width="216" height="216" version="1.1" viewBox="0 0 57.15 57.15" xmlns="http://www.w3.org/2000/svg">
 <path d="m2.1749 2.0592c3.5464-2.2587 50.833-2.1581 52.888 0 2.4619 2.5853 2.0195 51.521 0 53.021-2.527 1.8775-50.478 2.5428-52.888 0-1.6083-1.6968-3.0152-51.101 0-53.021z" fill="none" stroke="#000" stroke-width=".80511"/>
 <g>
  <ellipse cx="-47.916" cy="49.108" rx="5.5693" ry="5.5833"/>
  <ellipse cx="13.323" cy="12.447" rx="5.5693" ry="5.5833"/>
  <ellipse cx="-54.712" cy="30.31" rx="5.5693" ry="5.5833"/>
  <ellipse cx="-21.959" cy="37.615" rx="5.5693" ry="5.5833"/>
  <ellipse cx="-35.188" cy="17.219" rx="5.5693" ry="5.5833"/>
  <ellipse cx="-61.649" cy="-11.246" rx="5.5693" ry="5.5833"/>
  <ellipse cx="43.183" cy="45.423" rx="5.5693" ry="5.5833"/>
  <rect x="-52.416" y="60.875" width="11.206" height="6.6514"/>
 </g>
</svg>
